# xmcd
#
# Track frame offsets:
#	150
#	20004
#	37405
#	52874
#	68431
#	82391
#	86750
#	91119
#	95450
#	99770
#	104166
#	108508
#	112135
#	115527
#	118939
#	122214
#	125552
#	129001
#	151953
#	171520
#	188858
#	204357
#	218326
#	224255
#	229471
#	234150
#	238339
#
# Disc length: 3228 seconds
#
# Revision: 1
# Processed by: cddbd v1.5.2PL0 Copyright (c) Steve Scherf et al.
# Submitted via: audiograbber 1.83.01
#
DISCID=7f0c9a1b
DTITLE=Joe Filisko - Rice Cool Blues
DYEAR=1900
DGENRE=Blues
TTITLE0=Acoustic Harp Version at 70 bpm
TTITLE1=Acoustic Harp Version at 80 bpm
TTITLE2=Acoustic Harp Version at 90 bpm
TTITLE3=Electric Harp Version at 90 bpm
TTITLE4=Electric Harp Version at 100 bpm
TTITLE5=Page 1 at 60 bpm
TTITLE6=Page 2 at 60 bpm
TTITLE7=Page 3 at 60 bpm
TTITLE8=Page 4 at 60 bpm
TTITLE9=Page 5 at 60 bpm
TTITLE10=Page 6 at 60 bpm
TTITLE11=Page 1 at 80 bpm
TTITLE12=Page 2 at 80 bpm
TTITLE13=Page 3 at 80 bpm
TTITLE14=Page 4 at 80 bpm
TTITLE15=Page 5 at 80 bpm
TTITLE16=Page 6 at 80 bpm
TTITLE17=Practice at 60 bpm
TTITLE18=Practice at 70 bpm
TTITLE19=Practice at 80 bpm
TTITLE20=Practice at 90 bpm
TTITLE21=Practice at 100 bpm
TTITLE22=End at 60 bpm
TTITLE23=End at 70 bpm
TTITLE24=End at 80 bpm
TTITLE25=End at 90 bpm
TTITLE26=End at 100 bpm
EXTD=
EXTT0=
EXTT1=
EXTT2=
EXTT3=
EXTT4=
EXTT5=
EXTT6=
EXTT7=
EXTT8=
EXTT9=
EXTT10=
EXTT11=
EXTT12=
EXTT13=
EXTT14=
EXTT15=
EXTT16=
EXTT17=
EXTT18=
EXTT19=
EXTT20=
EXTT21=
EXTT22=
EXTT23=
EXTT24=
EXTT25=
EXTT26=
PLAYORDER=
